<?xml version="1.0" encoding="UTF-8"?>
<svg version="1.1" xmlns="http://www.w3.org/2000/svg" width="32" height="32">
<path d="M0 0 C10.56 0 21.12 0 32 0 C32 10.56 32 21.12 32 32 C21.44 32 10.88 32 0 32 C0 21.44 0 10.88 0 0 Z " fill="#263937" transform="translate(0,0)"/>
<path d="M0 0 C3.96003244 0 6.37604494 0.503149 10 2 C12.83096696 6.24645044 12.53277903 10.01414256 12 15 C9.97368421 19.51315789 9.97368421 19.51315789 7 21 C1.88853755 21.58656126 1.88853755 21.58656126 -1 21 C-4.61889122 17.68909952 -6.58935863 14.92769639 -7 10 C-7 9.34 -7 8.68 -7 8 C-7.66 7.67 -8.32 7.34 -9 7 C-8.67 6.01 -8.34 5.02 -8 4 C-6.948125 4.4640625 -6.948125 4.4640625 -5.875 4.9375 C-2.91063343 6.03302678 -0.12301892 6.56422992 3 7 C2.505 6.21625 2.01 5.4325 1.5 4.625 C0 2 0 2 0 0 Z " fill="#30483B" transform="translate(14,6)"/>
<path d="M0 0 C3.96003244 0 6.37604494 0.503149 10 2 C12.83096696 6.24645044 12.53277903 10.01414256 12 15 C9.97368421 19.51315789 9.97368421 19.51315789 7 21 C0.10334668 21.79141923 0.10334668 21.79141923 -2.671875 19.80078125 C-4.0625 18.25 -4.0625 18.25 -6 15 C-5.8125 12.625 -5.8125 12.625 -5 11 C-4.54625 11.969375 -4.0925 12.93875 -3.625 13.9375 C-2.34213779 17.07079582 -2.34213779 17.07079582 0 18 C1.54023996 18.06950541 3.08334988 18.08452357 4.625 18.0625 C5.44226562 18.05347656 6.25953125 18.04445313 7.1015625 18.03515625 C7.72804688 18.02355469 8.35453125 18.01195313 9 18 C9 15.36 9 12.72 9 10 C7.9275 10.04125 6.855 10.0825 5.75 10.125 C2.34252515 10.0114175 0.79260369 9.78726636 -2 8 C-2 7.34 -2 6.68 -2 6 C-0.35 6.33 1.3 6.66 3 7 C2.505 6.21625 2.01 5.4325 1.5 4.625 C0 2 0 2 0 0 Z " fill="#64924D" transform="translate(14,6)"/>
<path d="M0 0 C3 3 3 3 3.3984375 5.3046875 C3.31875665 14.04302092 3.31875665 14.04302092 0 18 C-3.24063336 19.62031668 -6.50989147 19.71267483 -10 19 C-12.49665927 17.20917197 -13.3717434 15.73126914 -15 13 C-14.8125 10.625 -14.8125 10.625 -14 9 C-13.54625 9.969375 -13.0925 10.93875 -12.625 11.9375 C-11.34213779 15.07079582 -11.34213779 15.07079582 -9 16 C-5.99525503 16.13559318 -3.00931153 16.04299016 0 16 C0 10.72 0 5.44 0 0 Z " fill="#8BC95B" transform="translate(23,8)"/>
<path d="M0 0 C1.9375 0.3125 1.9375 0.3125 4 1 C4.33 1.99 4.66 2.98 5 4 C7.00016466 5.20882096 7.00016466 5.20882096 9 6 C8.67 7.32 8.34 8.64 8 10 C7.01 10 6.02 10 5 10 C3.96210419 8.35666496 2.96432076 6.68756133 2 5 C1.01 4.34 0.02 3.68 -1 3 C-0.67 2.01 -0.34 1.02 0 0 Z " fill="#84BF58" transform="translate(6,10)"/>
<path d="M0 0 C3 3 3 3 3.07421875 5.26171875 C2.94660156 6.06222656 2.81898437 6.86273438 2.6875 7.6875 C2.50767578 8.89986328 2.50767578 8.89986328 2.32421875 10.13671875 C2.21722656 10.75160156 2.11023438 11.36648437 2 12 C1.67 12 1.34 12 1 12 C0.67 8.04 0.34 4.08 0 0 Z " fill="#7FB857" transform="translate(23,8)"/>
<path d="M0 0 C3 1 3 1 4.6875 3.9375 C6 7 6 7 6 9 C5.34 9 4.68 9 4 9 C0 2.25 0 2.25 0 0 Z " fill="#84BF58" transform="translate(14,6)"/>
</svg>
