<svg xmlns="http://www.w3.org/2000/svg" width="187" height="49" viewBox="0 0 187 49" fill="none"><g clip-path="url(#clip0_3898_746)"><path d="M153.177 24.0588C153.142 27.9848 152.084 31.566 149.599 34.6391C147.526 37.2041 144.873 38.91 141.73 39.8114C137.357 41.0696 133.014 40.9486 128.837 39.1036C123.329 36.6717 120.24 32.3162 119.464 26.3152C119.021 22.8912 119.482 19.5701 121.029 16.4607C123.192 12.1233 126.693 9.4132 131.305 8.20333C135.714 7.04184 140.063 7.30197 144.204 9.29826C148.81 11.5184 151.66 15.2267 152.759 20.2597C153.028 21.4999 153.106 22.7884 153.273 24.0527L153.183 24.0648L153.177 24.0588ZM145.679 23.8773C145.656 23.5567 145.638 23.0667 145.572 22.5827C145.201 19.8302 144.025 17.5375 141.754 15.9102C139.777 14.4886 137.536 13.9805 135.146 14.2467C131.753 14.6278 129.232 16.3458 127.786 19.5036C126.525 22.2681 126.484 25.1295 127.511 27.9727C128.342 30.2654 129.871 31.9532 132.076 32.9937C133.862 33.8406 135.744 34.0584 137.674 33.7922C139.896 33.4897 141.79 32.5218 143.284 30.8099C144.968 28.8801 145.638 26.5753 145.673 23.8773H145.679Z" fill="#253837"/><path d="M166.089 28.1047V39.7498H158.974V8.35352C159.111 8.35352 159.242 8.35352 159.374 8.35352C164.142 8.35352 168.909 8.35352 173.677 8.35352C176.025 8.35352 178.313 8.68018 180.416 9.81142C183.642 11.5476 185.357 14.2819 185.285 17.9841C185.219 21.3536 183.582 23.8339 180.661 25.443C180.553 25.5035 180.446 25.558 180.29 25.6427C180.386 25.7213 180.452 25.7939 180.529 25.8423C183.176 27.4272 184.795 29.7986 185.691 32.7265C186.378 34.9648 186.582 37.2756 186.599 39.6046C186.599 39.6409 186.588 39.6772 186.576 39.7438H179.436C179.436 39.4413 179.448 39.1328 179.436 38.8243C179.346 36.8643 179.006 34.9587 178.187 33.1681C176.963 30.5124 175.039 28.7278 172.111 28.2076C171.723 28.141 171.323 28.0927 170.928 28.0927C169.429 28.0806 167.923 28.0866 166.424 28.0866C166.34 28.0866 166.256 28.0987 166.107 28.1108L166.089 28.1047ZM170.259 14.2335C170.259 14.2335 170.259 14.1851 170.259 14.1609C169.005 14.1609 167.75 14.167 166.501 14.1549C166.203 14.1549 166.095 14.2275 166.095 14.5481C166.107 17.0223 166.107 19.4965 166.095 21.9707C166.095 22.2792 166.179 22.376 166.489 22.376C168.748 22.3639 171.006 22.3941 173.265 22.3518C173.964 22.3397 174.686 22.2429 175.344 22.0191C177.548 21.275 178.701 19.0125 178.026 16.8529C177.494 15.1651 176.192 14.3968 174.573 14.2638C173.145 14.1428 171.699 14.2396 170.259 14.2396V14.2335Z" fill="#253837"/><path d="M88.6484 8.36621H95.9552V20.2956C96.0269 20.344 96.0448 20.3742 96.0687 20.3742C97.6041 20.3561 99.1515 20.5497 100.669 20.1988C102.886 19.6907 104.6 18.384 105.968 16.5994C107.755 14.2765 108.651 11.6208 108.752 8.68683C108.752 8.59004 108.77 8.49325 108.782 8.37831H116.238C115.999 15.1778 113.203 20.344 107.074 23.4776C107.564 23.6772 108.047 23.8647 108.519 24.0765C111.955 25.6009 114.225 28.2082 115.474 31.7592C116.364 34.2878 116.651 36.9072 116.675 39.5689C116.675 39.6173 116.663 39.6657 116.651 39.7444H109.242C109.23 39.575 109.218 39.3935 109.212 39.212C109.147 36.7136 108.782 34.2818 107.647 32.0314C105.998 28.7647 103.358 27.0165 99.7131 26.8894C98.572 26.8471 97.4309 26.8773 96.2898 26.8773C96.2061 26.8773 96.1225 26.8894 95.9791 26.9076V39.7565H88.6544V8.36621H88.6484Z" fill="#253837"/><path d="M78.8027 17.851C77.7452 16.6956 76.5443 15.8124 75.1821 15.1651C72.6012 13.9431 69.9067 13.441 67.0689 13.9976C66.3041 14.1488 65.5932 14.4392 64.9778 14.9352C63.6515 15.9999 63.6694 17.9236 65.0136 18.9581C65.9994 19.7142 67.1644 20.0409 68.3414 20.301C70.3428 20.7426 72.3562 21.0935 74.3577 21.5291C76.3173 21.9586 78.2231 22.5574 79.9318 23.6705C82.0289 25.0316 83.1759 26.9674 83.3671 29.484C83.5404 31.7344 83.1162 33.8335 81.8138 35.7028C80.6667 37.3482 79.0954 38.4371 77.2851 39.1933C74.5727 40.3245 71.7289 40.6391 68.8194 40.4636C66.2324 40.3063 63.7351 39.7619 61.3513 38.7093C59.2963 37.8079 57.4682 36.586 56.0881 34.7591C56.0462 34.6986 56.0044 34.6381 55.9268 34.5352C57.277 33.0652 58.6272 31.6013 59.9772 30.1252C60.4611 30.5245 60.9092 30.9298 61.3931 31.2928C63.4304 32.8051 65.7485 33.6157 68.2279 33.9605C70.0143 34.2086 71.8006 34.2449 73.5392 33.7065C74.1366 33.525 74.7281 33.2467 75.2359 32.8837C76.6758 31.8553 76.6578 29.9558 75.2359 28.9153C74.2262 28.1773 73.0493 27.8507 71.8604 27.5784C69.8529 27.1187 67.8276 26.7315 65.8202 26.2657C63.9621 25.8362 62.1579 25.2555 60.5149 24.2452C57.9282 22.6603 56.7512 20.3131 56.799 17.2945C56.8647 13.5802 58.6392 10.9789 61.8651 9.32745C64.4341 8.01473 67.2003 7.62757 70.0381 7.71226C72.9358 7.79696 75.7258 8.40189 78.3426 9.69041C80.0214 10.5192 81.521 11.602 82.7637 13.0176C82.8294 13.0902 82.8892 13.1688 82.9728 13.2716C81.5867 14.79 80.2066 16.3024 78.7907 17.851H78.8027Z" fill="#253837"/><path d="M12.7436 24.476C12.5524 25.0568 12.4449 25.6738 12.4449 26.315C12.4449 29.5152 15.0139 32.1224 18.1803 32.1224C21.3468 32.1224 23.9158 29.5212 23.9158 26.315C23.9158 23.1089 21.3468 20.5076 18.1803 20.5076C17.081 20.5076 16.0594 20.8282 15.1812 21.3727L10.1208 16.8659L12.0625 14.6639L9.14698 12.0264L7.18138 14.2526L5.81324 13.0306L7.88637 10.6834L4.97084 8.0459L2.87381 10.4173L2.64678 10.6774L1.45787 12.0264L1.46982 12.0385L0.298828 13.3936L12.7496 24.476H12.7436ZM18.1803 24.4639C19.184 24.4639 20.0085 25.2927 20.0085 26.309C20.0085 27.3253 19.19 28.154 18.1803 28.154C17.1707 28.154 16.3581 27.3253 16.3581 26.309C16.3581 25.2927 17.1766 24.4639 18.1803 24.4639Z" fill="#253837"/><path d="M16.6392 18.463C16.6691 18.457 17.4099 18.2573 18.4674 18.2573C20.7138 18.2573 23.7667 19.0921 25.571 23.0605L25.6965 23.3328L29.2453 21.6752L29.1198 21.403C26.9929 16.7268 23.462 14.3555 18.6168 14.3555C17.6907 14.3555 16.699 14.4462 15.6654 14.6216L15.3428 14.6761L16.3465 18.5295L16.6333 18.4509L16.6392 18.463Z" fill="#253837"/><path d="M30.7263 2.06325C32.0586 4.37411 36.4379 12.5408 36.8023 20.7861L36.8143 21.0946L40.7156 20.78L40.6977 20.4836C40.2317 13.0489 36.5096 4.79757 34.3349 0.538801C34.2692 0.405715 34.2274 0.327073 34.2094 0.290777L34.084 0.0185547L30.5352 1.68214L30.6606 1.95436C30.6606 1.95436 30.6845 1.99671 30.7204 2.06325H30.7263Z" fill="#253837"/><path d="M20.7557 2.77062C22.2971 4.54914 30.034 13.8107 31.0198 21.3059L31.0616 21.6023L34.933 21.0821L34.8912 20.7857C33.8576 12.9033 26.8675 3.92605 23.9102 0.429506C23.8266 0.332716 23.7728 0.266173 23.7489 0.235926L23.5637 0L20.5107 2.46815L20.6959 2.70407C20.6959 2.70407 20.7198 2.72827 20.7497 2.77062H20.7557Z" fill="#253837"/><path d="M43.553 3.81636L43.4455 3.53809L39.813 5.00204L39.9206 5.28031C45.4529 19.3512 46.0205 31.9399 41.4441 38.9512C37.949 44.3049 32.106 44.4924 31.8551 44.4985H31.8013C31.2098 44.5287 30.6243 44.5408 30.0567 44.5408C23.8254 44.5408 18.9802 42.8228 15.6404 39.4351C10.0424 33.7548 9.9707 25.2251 9.9707 25.1465L9.98265 24.8501L8.03499 24.7472L6.08732 24.6383L6.06939 24.9408C6.06939 25.0376 5.97978 35.2006 12.8504 42.2057C16.9489 46.3798 22.7381 48.5031 30.0628 48.5031C30.6841 48.5031 31.3234 48.485 31.9626 48.4548C32.7871 48.4306 40.1535 48.0434 44.6702 41.1894C50.0711 32.9865 49.6649 19.3633 43.553 3.81636Z" fill="#253837"/></g><defs><clipPath id="clip0_3898_746"><rect width="187" height="49" fill="white"/></clipPath></defs></svg>