<svg width="143" height="37" viewBox="0 0 143 37" fill="none" xmlns="http://www.w3.org/2000/svg">
<g clip-path="url(#clip0_3268_1456)">
<path d="M117.136 18.1666C117.108 21.1311 116.3 23.8353 114.399 26.1558C112.814 28.0926 110.785 29.3808 108.382 30.0614C105.038 31.0115 101.716 30.9202 98.523 29.5269C94.3106 27.6907 91.9486 24.4018 91.3547 19.8704C91.0166 17.285 91.3684 14.7772 92.5517 12.4293C94.2055 9.15411 96.8828 7.10769 100.41 6.19411C103.782 5.31707 107.108 5.51349 110.274 7.0209C113.796 8.69732 115.975 11.4974 116.816 15.2979C117.022 16.2344 117.081 17.2073 117.209 18.162L117.14 18.1711L117.136 18.1666ZM111.402 18.0295C111.384 17.7874 111.37 17.4174 111.32 17.052C111.037 14.9736 110.137 13.2424 108.4 12.0136C106.888 10.9402 105.175 10.5565 103.347 10.7574C100.752 11.0452 98.8245 12.3425 97.7189 14.7269C96.7549 16.8145 96.7229 18.9751 97.5087 21.122C98.1437 22.8532 99.3133 24.1277 100.999 24.9134C102.365 25.5529 103.804 25.7173 105.28 25.5163C106.98 25.2879 108.428 24.5571 109.57 23.2644C110.858 21.8072 111.37 20.0668 111.398 18.0295H111.402Z" fill="#A3EB64"/>
<path d="M127.01 21.2223V30.0155H121.568V6.30811C121.673 6.30811 121.774 6.30811 121.874 6.30811C125.52 6.30811 129.166 6.30811 132.812 6.30811C134.607 6.30811 136.357 6.55477 137.965 7.40897C140.432 8.71996 141.744 10.7846 141.689 13.5802C141.639 16.1245 140.387 17.9974 138.153 19.2124C138.07 19.2581 137.988 19.2992 137.869 19.3632C137.943 19.4225 137.993 19.4774 138.052 19.5139C140.076 20.7107 141.314 22.5013 142 24.7122C142.525 26.4023 142.68 28.1472 142.694 29.9059C142.694 29.9333 142.685 29.9607 142.676 30.0109H137.216C137.216 29.7825 137.225 29.5496 137.216 29.3166C137.148 27.8366 136.887 26.3977 136.261 25.0456C135.325 23.0403 133.854 21.6928 131.615 21.3C131.318 21.2497 131.012 21.2132 130.71 21.2132C129.564 21.204 128.412 21.2086 127.266 21.2086C127.202 21.2086 127.138 21.2177 127.023 21.2269L127.01 21.2223ZM130.199 10.7481C130.199 10.7481 130.199 10.7116 130.199 10.6933C129.239 10.6933 128.28 10.6979 127.325 10.6887C127.096 10.6887 127.014 10.7435 127.014 10.9856C127.023 12.8539 127.023 14.7222 127.014 16.5904C127.014 16.8234 127.078 16.8965 127.316 16.8965C129.043 16.8874 130.77 16.9102 132.497 16.8782C133.031 16.8691 133.584 16.796 134.087 16.627C135.772 16.0651 136.654 14.3567 136.138 12.726C135.731 11.4516 134.735 10.8714 133.497 10.7709C132.405 10.6796 131.3 10.7527 130.199 10.7527V10.7481Z" fill="#A3EB64"/>
<path d="M67.79 6.31738H73.3775V15.3253C73.4324 15.3618 73.4461 15.3847 73.4644 15.3847C74.6385 15.371 75.8218 15.5171 76.9822 15.2522C78.6772 14.8685 79.9884 13.8818 81.0347 12.5343C82.4007 10.7802 83.086 8.77491 83.1637 6.55948C83.1637 6.4864 83.1774 6.41331 83.1865 6.32652H88.8883C88.7055 11.4608 86.5674 15.3618 81.8799 17.728C82.2545 17.8787 82.6246 18.0203 82.9855 18.1802C85.6125 19.3313 87.3486 21.3001 88.3035 23.9815C88.9842 25.8908 89.2035 27.8687 89.2218 29.8786C89.2218 29.9152 89.2126 29.9517 89.2035 30.0111H83.5383C83.5292 29.8832 83.52 29.7462 83.5155 29.6091C83.4652 27.7226 83.1865 25.8863 82.3185 24.187C81.0575 21.7203 79.0382 20.4002 76.2513 20.3043C75.3786 20.2723 74.506 20.2952 73.6334 20.2952C73.5694 20.2952 73.5055 20.3043 73.3958 20.318V30.0202H67.7946V6.31738H67.79Z" fill="#A3EB64"/>
<path d="M60.2609 13.4796C59.4523 12.6071 58.5339 11.9402 57.4923 11.4515C55.5186 10.5287 53.4581 10.1496 51.288 10.5699C50.7032 10.6841 50.1595 10.9033 49.689 11.2779C48.6747 12.0818 48.6884 13.5344 49.7164 14.3155C50.4702 14.8865 51.3611 15.1332 52.2611 15.3296C53.7916 15.6631 55.3313 15.928 56.8618 16.2569C58.3603 16.5812 59.8177 17.0334 61.1244 17.8739C62.728 18.9017 63.6052 20.3634 63.7514 22.2637C63.8839 23.9629 63.5595 25.548 62.5635 26.9595C61.6863 28.202 60.4848 29.0242 59.1005 29.5952C57.0263 30.4494 54.8516 30.6869 52.6266 30.5544C50.6484 30.4357 48.7387 30.0245 46.9158 29.2297C45.3443 28.5491 43.9463 27.6264 42.8909 26.2469C42.859 26.2012 42.827 26.1555 42.7676 26.0779C43.8001 24.9679 44.8326 23.8624 45.865 22.7479C46.235 23.0494 46.5777 23.3554 46.9477 23.6295C48.5057 24.7715 50.2783 25.3836 52.1743 25.6439C53.5404 25.8312 54.9064 25.8586 56.2359 25.4521C56.6928 25.315 57.1451 25.1049 57.5334 24.8308C58.6345 24.0543 58.6208 22.62 57.5334 21.8343C56.7613 21.277 55.8613 21.0303 54.9521 20.8248C53.417 20.4776 51.8682 20.1853 50.3331 19.8336C48.9123 19.5092 47.5325 19.0707 46.2762 18.3079C44.2981 17.1111 43.3981 15.3387 43.4346 13.0594C43.4849 10.2547 44.8418 8.29047 47.3087 7.04344C49.2732 6.0522 51.3885 5.75985 53.5586 5.82381C55.7745 5.88776 57.908 6.34455 59.9091 7.31751C61.1929 7.94331 62.3397 8.76097 63.29 9.82986C63.3402 9.88467 63.3859 9.94405 63.4499 10.0217C62.3899 11.1683 61.3346 12.3102 60.2518 13.4796H60.2609Z" fill="#A3EB64"/>
<path d="M9.7451 18.4816C9.5989 18.9201 9.51666 19.3861 9.51666 19.8703C9.51666 22.2867 11.4812 24.2554 13.9026 24.2554C16.324 24.2554 18.2885 22.2912 18.2885 19.8703C18.2885 17.4493 16.324 15.4851 13.9026 15.4851C13.062 15.4851 12.2807 15.7272 11.6091 16.1383L7.73944 12.7352L9.22427 11.0725L6.99475 9.08087L5.49165 10.7619L4.44542 9.83915L6.03075 8.0668L3.80123 6.0752L2.19762 7.86581L2.02401 8.06223L1.11484 9.08087L1.12398 9.09001L0.228516 10.1132L9.74967 18.4816H9.7451ZM13.9026 18.4725C14.6701 18.4725 15.3006 19.0983 15.3006 19.8657C15.3006 20.6331 14.6747 21.2589 13.9026 21.2589C13.1305 21.2589 12.5092 20.6331 12.5092 19.8657C12.5092 19.0983 13.1351 18.4725 13.9026 18.4725Z" fill="#A3EB64"/>
<path d="M12.7238 13.9414C12.7467 13.9369 13.3132 13.7861 14.1218 13.7861C15.8397 13.7861 18.1743 14.4165 19.554 17.4131L19.65 17.6186L22.3638 16.367L22.2678 16.1614C20.6414 12.6305 17.9413 10.8398 14.2361 10.8398C13.5279 10.8398 12.7695 10.9084 11.9791 11.0408L11.7324 11.0819L12.5 13.9917L12.7193 13.9323L12.7238 13.9414Z" fill="#A3EB64"/>
<path d="M23.4968 1.55762C24.5156 3.30256 27.8645 9.46923 28.1431 15.6953L28.1523 15.9282L31.1356 15.6907L31.1219 15.4669C30.7656 9.85294 27.9193 3.62232 26.2563 0.406511C26.206 0.306017 26.174 0.246635 26.1603 0.219227L26.0644 0.0136719L23.3506 1.26985L23.4465 1.4754C23.4465 1.4754 23.4648 1.50738 23.4922 1.55762H23.4968Z" fill="#A3EB64"/>
<path d="M15.8719 2.0921C17.0506 3.43506 22.9671 10.4285 23.7209 16.0882L23.7529 16.312L26.7134 15.9191L26.6814 15.6953C25.891 9.74333 20.5457 2.96457 18.2842 0.324321C18.2202 0.251235 18.1791 0.200988 18.1608 0.178148L18.0192 0L15.6846 1.8637L15.8262 2.04185C15.8262 2.04185 15.8445 2.06012 15.8673 2.0921H15.8719Z" fill="#A3EB64"/>
<path d="M33.3056 2.88249L33.2234 2.67236L30.4456 3.7778L30.5278 3.98792C34.7585 14.6129 35.1925 24.1187 31.6929 29.4129C29.0202 33.4554 24.552 33.5971 24.3601 33.6016H24.319C23.8667 33.6245 23.4189 33.6336 22.9849 33.6336C18.2197 33.6336 14.5146 32.3363 11.9607 29.7783C7.67982 25.489 7.625 19.0483 7.625 18.9889L7.63414 18.7651L6.14474 18.6874L4.65535 18.6052L4.64165 18.8336C4.64165 18.9067 4.57312 26.5808 9.82711 31.8704C12.9612 35.0222 17.3883 36.6256 22.9895 36.6256C23.4647 36.6256 23.9535 36.6119 24.4424 36.589C25.0728 36.5708 30.706 36.2784 34.1599 31.103C38.29 24.9089 37.9794 14.622 33.3056 2.88249Z" fill="#A3EB64"/>
</g>
<defs>
<clipPath id="clip0_3268_1456">
<rect width="143" height="37" fill="white"/>
</clipPath>
</defs>
</svg>
